<svg xmlns="http://www.w3.org/2000/svg" id="shopping-bag" width="30.371" height="41.118" viewBox="0 0 30.371 41.118">
    <defs>
        <style>
            .cls-1{fill:#070746}.cls-2{fill:#a8a6a7}
        </style>
    </defs>
    <g id="Group_1612" data-name="Group 1612" transform="translate(0 12.149)">
        <path id="Path_1407" d="M181.01 135.837H169.8" class="cls-1" data-name="Path 1407" transform="translate(-159.984 -135.837)"/>
        <path id="Path_1408" d="M89.052 135.837H61.484a1.377 1.377 0 0 0-1.4 1.4V160.6a4.188 4.188 0 0 0 4.205 4.205h21.959a4.188 4.188 0 0 0 4.205-4.205v-23.361a1.377 1.377 0 0 0-1.401-1.402z" class="cls-1" data-name="Path 1408" transform="translate(-60.082 -135.837)"/>
    </g>
    <path id="Path_1409" d="M138.449 20.092a1.4 1.4 0 0 0 2.8 0V8.411a5.623 5.623 0 0 1 5.61-5.611 5.745 5.745 0 0 1 3.972 1.635 5.661 5.661 0 0 1 1.635 3.972v11.685a1.4 1.4 0 0 0 2.8 0V8.411A8.456 8.456 0 0 0 146.86 0a8.435 8.435 0 0 0-8.411 8.411v11.681z" class="cls-2" data-name="Path 1409" transform="translate(-131.44)"/>
</svg>
